<?xml version="1.0" encoding="utf-8"?>
<!-- Generator: Adobe Illustrator 24.0.1, SVG Export Plug-In . SVG Version: 6.00 Build 0)  -->
<svg version="1.1" id="Layer_1" xmlns="http://www.w3.org/2000/svg" xmlns:xlink="http://www.w3.org/1999/xlink" x="0px" y="0px"
	 viewBox="0 0 798.16 199.56" style="enable-background:new 0 0 798.16 199.56;" xml:space="preserve">
<style type="text/css">
	.st0{fill:url(#SVGID_1_);}
	.st1{fill:url(#SVGID_2_);}
	.st2{fill:url(#SVGID_6_);}
	.st3{fill:#382757;}
</style>
<linearGradient id="SVGID_1_" gradientUnits="userSpaceOnUse" x1="76.8588" y1="136.1435" x2="44.4249" y2="97.4903">
	<stop  offset="0" style="stop-color:#CE5DCB"/>
	<stop  offset="0.2095" style="stop-color:#C558CC"/>
	<stop  offset="0.5525" style="stop-color:#AC4ACF"/>
	<stop  offset="0.9845" style="stop-color:#8534D4"/>
	<stop  offset="1" style="stop-color:#8333D4"/>
</linearGradient>
<path class="st0" d="M13.54,134.2c18.05,18.05,47.31,18.05,65.36,0l1.73-1.73c9.02-9.02-9.03-56.34,0-65.36L13.54,134.2z"/>
<linearGradient id="SVGID_2_" gradientUnits="userSpaceOnUse" x1="78.0353" y1="92.1462" x2="147.7278" y2="92.1462">
	<stop  offset="0.0237" style="stop-color:#FF5667"/>
	<stop  offset="0.6592" style="stop-color:#FC8B82"/>
	<stop  offset="1" style="stop-color:#FBA28E"/>
</linearGradient>
<path class="st1" d="M82.37,65.37l-1.73,1.73c-9.02,9.02,9.02,56.34,0,65.36l67.09-67.09c-9.03-9.02-20.85-13.53-32.68-13.53
	C103.22,51.83,91.39,56.35,82.37,65.37"/>
<g>
	<defs>
		<path id="SVGID_3_" d="M13.54,68.84c-18.05,18.05-18.05,47.31,0,65.36l68.84-68.84c18.05-18.05,18.05-47.31,0-65.36L13.54,68.84z"
			/>
	</defs>
	<linearGradient id="SVGID_4_" gradientUnits="userSpaceOnUse" x1="0" y1="67.1002" x2="95.9173" y2="67.1002">
		<stop  offset="0" style="stop-color:#00B874"/>
		<stop  offset="0.5126" style="stop-color:#29D3A2"/>
		<stop  offset="0.6817" style="stop-color:#53DFB6"/>
		<stop  offset="1" style="stop-color:#9FF4D9"/>
	</linearGradient>
	<use xlink:href="#SVGID_3_"  style="overflow:visible;fill:url(#SVGID_4_);"/>
	<clipPath id="SVGID_5_">
		<use xlink:href="#SVGID_3_"  style="overflow:visible;"/>
	</clipPath>
</g>
<linearGradient id="SVGID_6_" gradientUnits="userSpaceOnUse" x1="65.3598" y1="132.4593" x2="161.2761" y2="132.4593">
	<stop  offset="0" style="stop-color:#FCD77E"/>
	<stop  offset="0.5241" style="stop-color:#FEA500"/>
	<stop  offset="1" style="stop-color:#FF5B00"/>
</linearGradient>
<path class="st2" d="M78.9,134.2c-18.05,18.05-18.05,47.31,0,65.36l68.84-68.84c18.05-18.05,18.05-47.31,0-65.36L78.9,134.2z"/>
<g>
	<path class="st3" d="M415.54,100.14c-1.39-4.76-3.46-9.31-6.17-13.5c-4.63-7.17-11.06-13.15-18.62-17.29
		c-11.93-6.51-26.18-8.04-39.29-4.22c-13.24,3.86-24.17,12.66-30.79,24.79c-6.58,12.07-8.1,25.97-4.27,39.17l0.04,0.13
		c0.88,2.94,2.29,6.7,2.32,6.76c4.39,10.28,11.75,18.13,22.48,23.99c7.58,4.15,16.11,6.34,24.67,6.34c4.92,0,9.83-0.71,14.6-2.12
		c10.09-2.95,18.89-8.77,25.54-16.95l0.42-0.52c1.7-2.14,3.23-4.43,4.56-6.82c2.37-4.23,0.85-9.6-3.38-11.97
		c-1.31-0.73-2.79-1.12-4.29-1.12c-3.19,0-6.13,1.72-7.68,4.5c-2.17,3.88-5.05,7.26-8.55,10.02c-0.3,0.24-0.59,0.5-0.74,0.68
		c-3.22,2.4-6.86,4.2-10.8,5.36c-8.62,2.53-18.02,1.52-25.95-2.8c-5.23-2.85-9.6-7.08-12.71-12.26L409.6,111
		C414.23,109.64,416.89,104.77,415.54,100.14z M366.05,80.53c5.62,0,11.25,1.45,16.29,4.19c4.97,2.71,9.23,6.66,12.31,11.41
		c0.17,0.27,0.35,0.55,0.52,0.83l-63.27,18.56c-0.16-5.97,1.28-11.91,4.18-17.22c4.36-7.99,11.57-13.8,20.31-16.37
		C359.57,81,362.82,80.53,366.05,80.53z M405.48,146.54L405.48,146.54L405.48,146.54L405.48,146.54z"/>
	<path class="st3" d="M508.81,149.61h-48.08l53.77-78.98c1.02-1.49,1.12-3.41,0.28-5.01c-0.84-1.6-2.49-2.59-4.3-2.59h-68.36
		c-4.54,0-8.23,3.69-8.23,8.23c0,4.54,3.69,8.23,8.23,8.23h45.81l-53.75,78.98c-1.02,1.5-1.12,3.42-0.28,5.01
		c0.84,1.6,2.49,2.58,4.3,2.58h70.6c4.54,0,8.23-3.69,8.23-8.23C517.04,153.31,513.35,149.61,508.81,149.61z"/>
	<path class="st3" d="M615.33,149.61h-48.07l53.76-78.98c1.02-1.49,1.12-3.41,0.28-5.01c-0.84-1.59-2.49-2.58-4.3-2.58h-68.35
		c-4.54,0-8.23,3.69-8.23,8.23c0,4.54,3.69,8.23,8.23,8.23h45.81l-53.75,78.98c-1.01,1.5-1.12,3.42-0.28,5.01
		c0.85,1.6,2.49,2.58,4.3,2.58h70.6c4.54,0,8.23-3.69,8.23-8.23C623.56,153.31,619.87,149.61,615.33,149.61z"/>
	<path class="st3" d="M662.8,18.47c-4.54,0-8.23,3.69-8.23,8.23v131.43c0,4.54,3.69,8.23,8.23,8.23c4.54,0,8.23-3.7,8.23-8.23V26.7
		C671.03,22.16,667.34,18.47,662.8,18.47z"/>
	<path class="st3" d="M797.81,100.15c-1.38-4.76-3.46-9.3-6.16-13.5c-4.63-7.17-11.07-13.15-18.62-17.29
		c-11.94-6.51-26.17-8.04-39.29-4.22c-13.24,3.86-24.17,12.66-30.78,24.79c-6.59,12.06-8.1,25.97-4.28,39.17l0.04,0.14
		c0.88,2.93,2.29,6.69,2.32,6.76c4.39,10.28,11.75,18.12,22.48,23.99c7.58,4.15,16.11,6.34,24.67,6.34c4.91,0,9.83-0.71,14.6-2.12
		c10.09-2.95,18.89-8.77,25.53-16.94l0.43-0.55c1.7-2.15,3.23-4.44,4.55-6.8c2.37-4.23,0.85-9.6-3.38-11.97
		c-1.31-0.73-2.79-1.12-4.29-1.12c-3.19,0-6.13,1.72-7.68,4.5c-2.17,3.89-5.05,7.26-8.54,10.02c-0.31,0.24-0.59,0.5-0.75,0.68
		c-3.22,2.4-6.86,4.2-10.81,5.36c-8.61,2.53-18.02,1.52-25.95-2.8c-5.23-2.85-9.61-7.08-12.71-12.26L791.87,111
		C796.5,109.64,799.16,104.77,797.81,100.15z M748.33,80.53c5.62,0,11.25,1.45,16.29,4.19c4.97,2.71,9.22,6.66,12.31,11.41
		c0.17,0.27,0.35,0.55,0.52,0.83l-63.27,18.56c-0.16-5.98,1.28-11.91,4.18-17.22c4.36-7.99,11.57-13.8,20.31-16.37
		C741.84,81,745.09,80.53,748.33,80.53z"/>
	<path class="st3" d="M288.83,120.31c-2.44-3.57-5.97-6.55-10.47-8.85c-7.37-3.75-16.92-5.47-26.08-6.9l-1.45-0.22
		c-6.43-1-13.08-2.04-17.35-4.2c-3.23-1.64-4.38-3.48-4.38-7.07c0-6.95,7.57-12.19,17.6-12.19c11.98,0,18.66,3.5,26.16,8.07
		c1.39,0.85,2.99,1.3,4.61,1.3c3.12,0,5.95-1.58,7.58-4.24c1.23-2.02,1.61-4.4,1.05-6.71c-0.56-2.3-1.98-4.25-4-5.48
		c-4.15-2.54-8.69-5.18-14.42-7.24c-6.45-2.31-13.31-3.44-20.97-3.44c-9.24,0-17.89,2.81-24.34,7.91c-7.09,5.6-11,13.42-11,22.02
		c0,10.3,4.88,18.22,14.11,22.89c6.78,3.43,14.84,4.68,22.63,5.89l1.44,0.22c19.98,3.13,25.76,5.95,25.76,12.56
		c0,8.19-8.2,13.55-20.89,13.66l-0.46,0c-13.62,0-21.26-5.23-25.36-8.04c-0.68-0.46-1.26-0.87-1.84-1.23
		c-1.41-0.88-3.03-1.34-4.69-1.34c-3.08,0-5.9,1.56-7.53,4.17c-2.59,4.15-1.32,9.63,2.83,12.22c0.23,0.14,0.58,0.38,0.97,0.65
		l0.24,0.16c4.87,3.33,16.27,11.15,35.38,11.15l0.61,0c11.02-0.1,20.48-3.06,27.38-8.58c7.15-5.73,11.09-13.83,11.09-22.81
		C293.03,129.19,291.61,124.38,288.83,120.31z"/>
</g>
</svg>
